<svg xmlns="http://www.w3.org/2000/svg" xmlns:xlink="http://www.w3.org/1999/xlink" width="624" height="357" viewBox="0 0 624 357"><defs><rect id="a" width="218" height="120" x="199" y="18" rx="24"/><filter id="b" width="125.7%" height="146.7%" x="-12.8%" y="-16.7%"><feOffset dx="0" dy="8" in="SourceAlpha" result="shadowOffsetOuter1"/><feGaussianBlur in="shadowOffsetOuter1" result="shadowBlurOuter1" stdDeviation="8"/><feColorMatrix in="shadowBlurOuter1" type="matrix" values="0 0 0 0 0 0 0 0 0 0 0 0 0 0 0 0 0 0 0.103742074 0"/></filter><rect id="c" width="120" height="120" x="19" y="17" rx="24"/><filter id="d" width="146.7%" height="146.7%" x="-23.3%" y="-16.7%"><feOffset dx="0" dy="8" in="SourceAlpha" result="shadowOffsetOuter1"/><feGaussianBlur in="shadowOffsetOuter1" result="shadowBlurOuter1" stdDeviation="8"/><feColorMatrix in="shadowBlurOuter1" type="matrix" values="0 0 0 0 0 0 0 0 0 0 0 0 0 0 0 0 0 0 0.103742074 0"/></filter><rect id="e" width="120" height="120" x="488" y="17" rx="24"/><filter id="f" width="146.7%" height="146.7%" x="-23.3%" y="-16.7%"><feOffset dx="0" dy="8" in="SourceAlpha" result="shadowOffsetOuter1"/><feGaussianBlur in="shadowOffsetOuter1" result="shadowBlurOuter1" stdDeviation="8"/><feColorMatrix in="shadowBlurOuter1" type="matrix" values="0 0 0 0 0 0 0 0 0 0 0 0 0 0 0 0 0 0 0.103742074 0"/></filter><rect id="g" width="120" height="120" x="199" y="198" rx="24"/><filter id="h" width="146.7%" height="146.7%" x="-23.3%" y="-16.7%"><feOffset dx="0" dy="8" in="SourceAlpha" result="shadowOffsetOuter1"/><feGaussianBlur in="shadowOffsetOuter1" result="shadowBlurOuter1" stdDeviation="8"/><feColorMatrix in="shadowBlurOuter1" type="matrix" values="0 0 0 0 0 0 0 0 0 0 0 0 0 0 0 0 0 0 0.103742074 0"/></filter></defs><g fill="none" fill-rule="evenodd"><use fill="#000" filter="url(#b)" xlink:href="#a"/><use fill="#fff" fill-rule="evenodd" xlink:href="#a"/><use fill="#000" filter="url(#d)" xlink:href="#c"/><use fill="#fff" fill-rule="evenodd" xlink:href="#c"/><path stroke="#cfcfcf" stroke-dasharray="1 5 1 5" stroke-linecap="square" stroke-width="3" d="m99.5 84h142"/><rect width="40" height="40" x="238" y="57" fill="#f5a623" rx="3"/><text fill="#fff" font-family="HelveticaNeue, Helvetica Neue" font-size="20"><tspan x="251" y="85">D</tspan></text><rect width="40" height="40" x="338" y="57" fill="#7ed321" rx="3"/><text fill="#fff" font-family="HelveticaNeue-Medium, Helvetica Neue" font-size="20" font-weight="400"><tspan x="351" y="85">E</tspan></text><rect width="40" height="40" x="59" y="57" fill="#7ed321" rx="3"/><text fill="#fff" font-family="HelveticaNeue-Medium, Helvetica Neue" font-size="20" font-weight="400"><tspan x="72" y="85">E</tspan></text><text fill="#4a4a4a" font-family="HelveticaNeue-Medium, Helvetica Neue" font-size="16" font-weight="400"><tspan x="276.8" y="13">Proxy</tspan></text><rect width="40" height="40" x="59" y="57" fill="#7ed321" rx="3"/><text fill="#fff" font-family="HelveticaNeue-Medium, Helvetica Neue" font-size="20" font-weight="400"><tspan x="72" y="85">E</tspan></text><text fill="#4a4a4a" font-family="HelveticaNeue-Medium, Helvetica Neue" font-size="16" font-weight="400"><tspan x="57.664" y="13">Client</tspan></text><path fill="#919191" d="m76.7714138 112.8h18.5017057l3.7268805 3.783984v1.016016l-4.3081855 4.127734-2.252508-2.23457-2.2859321 2.23457-2.3971501-2.23457-2.0728782 2.23457-2.4014503-2.23457-2.9022249 2.906836h-3.7256855c-1.6641475 2.756631-4.6899863 4.6-8.1466971 4.6-5.2507303 0-9.5072883-4.253295-9.5072883-9.5s4.256558-9.5 9.5072883-9.5c3.5396543 0 6.627511 1.932893 8.2641255 4.8zm-12.4673477 7.2c1.3817711 0 2.501918-1.119288 2.501918-2.5s-1.1201469-2.5-2.501918-2.5-2.501918 1.119288-2.501918 2.5 1.1201469 2.5 2.501918 2.5z" opacity=".87"/><path fill="#919191" d="m355.771414 112.8h18.501706l3.72688 3.783984v1.016016l-4.308185 4.127734-2.252509-2.23457-2.285932 2.23457-2.39715-2.23457-2.072878 2.23457-2.40145-2.23457-2.902225 2.906836h-3.725686c-1.664147 2.756631-4.689986 4.6-8.146697 4.6-5.25073 0-9.507288-4.253295-9.507288-9.5s4.256558-9.5 9.507288-9.5c3.539655 0 6.627511 1.932893 8.264126 4.8zm-12.467348 7.2c1.381771 0 2.501918-1.119288 2.501918-2.5s-1.120147-2.5-2.501918-2.5-2.501918 1.119288-2.501918 2.5 1.120147 2.5 2.501918 2.5z" opacity=".87"/><path d="m0 237h280v120h-280z"/><path fill="#b8e986" d="m19 310h14v3h-14z"/><path fill="#f5a623" d="m19 330h14v3h-14z"/><g fill="#787878" font-family="HelveticaNeue, Helvetica Neue" font-size="14"><text><tspan x="40" y="317">SSH connection</tspan></text><text><tspan x="40" y="337">HTTPS connection</tspan></text><text><tspan x="39" y="274">Encrypted</tspan></text><text><tspan x="39" y="297">Decrypted</tspan></text></g><path stroke="#b8e986" stroke-linecap="square" stroke-width="3" d="m100.5 78h136"/><rect width="15" height="14" x="18" y="265" fill="#7ed321" rx="2"/><text fill="#fff" font-family="HelveticaNeue-Medium, Helvetica Neue" font-size="10" font-weight="400"><tspan x="22" y="276">E</tspan></text><rect width="15" height="14" x="18" y="285" fill="#f5a623" rx="2"/><text fill="#fff" font-family="HelveticaNeue-Medium, Helvetica Neue" font-size="10" font-weight="400"><tspan x="22" y="296">D</tspan></text><text fill="#787878" font-family="HelveticaNeue, Helvetica Neue" font-size="12"><tspan x="155.892" y="74">SSH</tspan></text><text fill="#787878" font-family="HelveticaNeue, Helvetica Neue" font-size="12"><tspan x="445.892" y="74">SSH</tspan></text><use fill="#000" filter="url(#f)" xlink:href="#e"/><use fill="#fff" fill-rule="evenodd" xlink:href="#e"/><text fill="#4a4a4a" font-family="HelveticaNeue-Medium, Helvetica Neue" font-size="16" font-weight="400"><tspan x="528.144" y="13">Node</tspan></text><rect width="40" height="40" x="528" y="57" fill="#f5a623" rx="3"/><text fill="#fff" font-family="HelveticaNeue, Helvetica Neue" font-size="20"><tspan x="541" y="85">D</tspan></text><use fill="#000" filter="url(#h)" xlink:href="#g"/><use fill="#fff" fill-rule="evenodd" xlink:href="#g"/><text fill="#4a4a4a" font-family="HelveticaNeue-Medium, Helvetica Neue" font-size="16" font-weight="400"><tspan x="241.816" y="338">Auth</tspan></text><g transform="translate(239 238)"><path fill="#f5a623" d="m0 36c0 2.209139 8.954305 4 20 4s20-1.790861 20-4v-32h-40z"/><ellipse cx="20" cy="4" fill="#ffcb76" rx="20" ry="4"/></g><text font-family="HelveticaNeue-Medium, Helvetica Neue" font-size="10" font-weight="400"><tspan x="145.435" y="130" fill="#787878">A</tspan> <tspan x="152.105" y="130" fill="#787878">g</tspan> <tspan x="158.035" y="130" fill="#787878">e</tspan> <tspan x="163.595" y="130" fill="#787878">n</tspan> <tspan x="169.335" y="130" fill="#787878">t</tspan> <tspan x="175.445" y="130" fill="#787878">k</tspan> <tspan x="180.815" y="130" fill="#787878">e</tspan> <tspan x="186.375" y="130" fill="#787878">y</tspan> <tspan x="143.765" y="142" fill="#787877">f</tspan> <tspan x="146.915" y="142" fill="#777877">o</tspan> <tspan x="152.845" y="142" fill="#777977">r</tspan> <tspan x="156.365" y="142" fill="#777977">w</tspan> <tspan x="164.145" y="142" fill="#777977">a</tspan> <tspan x="169.705" y="142" fill="#777977">r</tspan> <tspan x="173.045" y="142" fill="#777977">d</tspan> <tspan x="179.155" y="142" fill="#777976">i</tspan> <tspan x="181.565" y="142" fill="#777976">n</tspan> <tspan x="187.305" y="142" fill="#777976">g</tspan></text><g stroke-linecap="square"><path stroke="#cfcfcf" stroke-width="3" d="m100 117h236"/><path fill="#f5a623" stroke="#f5a623" stroke-width="2" d="m258 99v137"/><path fill="#f5a623" stroke="#f5a623" stroke-width="2" d="m258 236 3-10.8h-6z"/><g stroke-width="3"><path stroke="#b8e986" d="m379.5 78h147"/><path stroke="#cfcfcf" stroke-dasharray="1 5 1 5" d="m77.5 98.5v17"/><path stroke="#cfcfcf" stroke-dasharray="1 5 1 5" d="m358.5 98.5v17"/><g fill="#f5a623" stroke="#f5a623"><path d="m277.5 76.5h56"/><path d="m333.5 76.5-10.8-3v6z"/></g></g></g><text fill="#787878" font-family="HelveticaNeue-Medium, Helvetica Neue" font-size="14" font-weight="400"><tspan x="241.018" y="293">Audit</tspan></text></g></svg>